<?xml version="1.0" encoding="UTF-8"?>
<svg id="Camada_2" data-name="Camada 2" xmlns="http://www.w3.org/2000/svg" viewBox="0 0 25.5 23.37">
  <defs>
    <style>
      .cls-1 {
        fill: #646464;
        stroke-width: 0px;
      }
    </style>
  </defs>
  <g id="Camada_1-2" data-name="Camada 1">
    <g id="Grupo_3" data-name="Grupo 3">
      <path id="Caminho_2" data-name="Caminho 2" class="cls-1" d="M19.5,4.17c-.79-.03-1.46.58-1.49,1.37.07.83.79,1.44,1.62,1.37.73-.06,1.31-.64,1.37-1.37-.04-.79-.7-1.4-1.49-1.37"/>
      <path id="Caminho_3" data-name="Caminho 3" class="cls-1" d="M12.85,5.93c-3.32-.13-6.12,2.44-6.28,5.76.27,3.47,3.31,6.06,6.78,5.79,3.09-.24,5.54-2.7,5.79-5.79-.16-3.32-2.96-5.89-6.28-5.76M12.86,15.37c-2.13.09-3.93-1.56-4.03-3.69.19-2.22,2.15-3.87,4.37-3.67,1.95.17,3.51,1.72,3.67,3.67-.1,2.13-1.9,3.77-4.02,3.69"/>
      <path id="Caminho_4" data-name="Caminho 4" class="cls-1" d="M17.84,23.37H7.66c-4.22,0-7.66-3.15-7.66-7.02V7.02C0,3.15,3.44,0,7.66,0h10.18c4.22,0,7.66,3.15,7.66,7.02v9.33c0,3.87-3.44,7.02-7.66,7.02M7.66,2.2c-2.78-.11-5.13,2.04-5.26,4.82v9.33c.13,2.78,2.48,4.93,5.26,4.82h10.18c2.78.11,5.13-2.04,5.26-4.82V7.02c-.13-2.78-2.48-4.93-5.26-4.82H7.66Z"/>
    </g>
  </g>
</svg>