<?xml version="1.0" encoding="UTF-8"?>
<svg id="Camada_2" data-name="Camada 2" xmlns="http://www.w3.org/2000/svg" xmlns:xlink="http://www.w3.org/1999/xlink" viewBox="0 0 20.3 18.56">
  <defs>
    <style>
      .cls-1 {
        fill: #646464;
      }

      .cls-1, .cls-2 {
        stroke-width: 0px;
      }

      .cls-2 {
        fill: none;
      }

      .cls-3 {
        clip-path: url(#clippath);
      }
    </style>
    <clipPath id="clippath">
      <rect class="cls-2" y="0" width="20.3" height="18.56"/>
    </clipPath>
  </defs>
  <g id="Camada_1-2" data-name="Camada 1">
    <g id="Grupo_2" data-name="Grupo 2">
      <g class="cls-3">
        <g id="Grupo_1" data-name="Grupo 1">
          <path id="Caminho_8" data-name="Caminho 8" class="cls-1" d="M.34,6.16h4.21v12.4H.34V6.16ZM2.44,0c1.29-.05,2.38.94,2.44,2.23-.06,1.29-1.15,2.29-2.44,2.24-1.29.05-2.38-.95-2.44-2.24C.06.95,1.15-.05,2.44,0"/>
          <path id="Caminho_9" data-name="Caminho 9" class="cls-1" d="M7.19,6.16h4.03v1.7h.06c.88-1.32,2.4-2.08,3.98-2,4.26,0,5.04,2.57,5.04,5.91v6.79h-4.2v-6.03c0-1.44-.03-3.29-2.19-3.29s-2.52,1.57-2.52,3.18v6.13h-4.2V6.16Z"/>
        </g>
      </g>
    </g>
  </g>
</svg>