<?xml version="1.0" encoding="UTF-8"?>
<svg id="Camada_2" data-name="Camada 2" xmlns="http://www.w3.org/2000/svg" xmlns:xlink="http://www.w3.org/1999/xlink" viewBox="0 0 162.02 109.09">
  <defs>
    <style>
      .cls-1 {
        fill: #646464;
      }

      .cls-1, .cls-2 {
        stroke-width: 0px;
      }

      .cls-2 {
        fill: none;
      }

      .cls-3 {
        clip-path: url(#clippath);
      }
    </style>
    <clipPath id="clippath">
      <rect class="cls-2" width="162.02" height="109.09"/>
    </clipPath>
  </defs>
  <g id="Camada_1-2" data-name="Camada 1">
    <g id="Grupo_2" data-name="Grupo 2">
      <g class="cls-3">
        <g id="Grupo_1" data-name="Grupo 1">
          <path id="Caminho_1" data-name="Caminho 1" class="cls-1" d="M162.02,7.25c0,1.86-.7,3.66-1.94,5.05-.73.68-1.56,1.24-2.46,1.68,0,0-58.68,33.65-62.82,34.82-4.11,1.24-8.39,1.85-12.68,1.81-4.25.04-8.49-.57-12.56-1.81C65.42,47.63,3.23,13.2,3.23,13.2c-.39-.26-.78-.52-1.16-.78C.71,11.04-.03,9.18,0,7.25,0,3.25,3.23,0,7.22,0c0,0,.02,0,.02,0,.97.02,1.93.2,2.85.51,1.03.38,62.96,34.94,65.16,35.72,4.53,1.29,9.33,1.29,13.85,0,2.19-.65,62.42-35.59,63.59-35.98.68-.16,1.37-.24,2.07-.26,3.99,0,7.24,3.23,7.24,7.22,0,0,0,.02,0,.02"/>
          <path id="Caminho_2" data-name="Caminho 2" class="cls-1" d="M162.02,101.84c.02,3.96-3.16,7.2-7.12,7.24-.88,0-1.75-.12-2.59-.39-.91-.38-62.63-27.05-64.7-27.56-4.28-1.16-8.79-1.16-13.07,0-2.07.51-63.93,27.18-63.93,27.18-.26.13-.39.26-.64.26-.92.31-1.88.48-2.85.51C3.07,108.97-.11,105.61,0,101.57c.05-1.84.79-3.59,2.07-4.9.67-.66,1.46-1.19,2.33-1.56,0,0,61.08-25.62,64.83-26.79,7.76-2.08,15.93-2.08,23.68,0,3.88,1.16,64.7,26.79,64.7,26.79.87.36,1.66.89,2.33,1.56,1.35,1.38,2.1,3.24,2.07,5.17"/>
        </g>
      </g>
    </g>
  </g>
</svg>