<?xml version="1.0" encoding="UTF-8"?>
<svg id="Camada_2" data-name="Camada 2" xmlns="http://www.w3.org/2000/svg" viewBox="0 0 19.74 23.36">
  <defs>
    <style>
      .cls-1 {
        fill: #646464;
        fill-rule: evenodd;
        stroke-width: 0px;
      }
    </style>
  </defs>
  <g id="Camada_1-2" data-name="Camada 1">
    <path id="Caminho_12" data-name="Caminho 12" class="cls-1" d="M8.25,15.23c-.02.07-.04.12-.06.18-.94,3.36-1.04,4.11-2,5.67-.46.74-.98,1.45-1.55,2.12-.07.08-.12.18-.25.15s-.15-.14-.17-.25c-.16-1.02-.23-2.05-.2-3.08.05-1.34.23-1.81,2.12-9.09.02-.1,0-.21-.04-.3-.47-1.08-.52-2.29-.15-3.4.86-2.49,3.93-2.68,4.47-.63.33,1.27-.55,2.93-1.22,5.38-.56,2.02,2.04,3.46,4.26,1.99,2.05-1.36,2.85-4.63,2.69-6.94-.3-4.61-5.82-5.61-9.32-4.13-4.01,1.7-4.93,6.26-3.12,8.35.23.27.41.43.33.7-.12.42-.22.84-.35,1.25-.08.26-.35.41-.61.34-.04-.01-.07-.03-.1-.04-.65-.24-1.22-.63-1.68-1.15-1.54-1.75-1.98-5.2.06-8.13C3.63.98,7.82-.33,11.66.07c4.57.48,7.47,3.34,8.01,6.59.34,2.76-.45,5.55-2.2,7.71-2.61,2.96-6.84,3.16-8.79,1.34-.15-.15-.29-.31-.42-.47"/>
  </g>
</svg>