<?xml version="1.0" encoding="UTF-8"?>
<svg id="Camada_2" data-name="Camada 2" xmlns="http://www.w3.org/2000/svg" viewBox="0 0 25.51 22.01">
  <defs>
    <style>
      .cls-1 {
        fill: #646464;
        stroke-width: 0px;
      }
    </style>
  </defs>
  <g id="Camada_1-2" data-name="Camada 1">
    <path id="Caminho_10" data-name="Caminho 10" class="cls-1" d="M0,17.14v-.37c.15-.19.36-.32.6-.37,1.91-.37,3.56-1.53,4.55-3.21.89-1.35.74-1.66-.89-2.19-.09-.03-.19-.06-.28-.09-.36-.12-.69-.29-1-.51-.73-.58-.3-1.42.57-1.61.63-.14,1.18.23,1.8.3.41.05.57-.08.52-.48-.12-1.03-.14-2.07-.07-3.1.09-1.91,1.23-3.62,2.95-4.45,2.47-1.43,5.51-1.43,7.99-.02,1.59.76,2.7,2.27,2.94,4.02.12,1.17.12,2.34-.01,3.51-.04.51.07.6.62.48.68-.15,1.25-.47,1.96-.18.39.12.66.46.7.86-.03.27-.17.51-.39.67-.35.24-.74.43-1.15.55-.31.11-.63.2-.93.33-.62.27-.8.62-.51,1.18.9,2,2.71,3.46,4.85,3.92.27.04.52.18.7.39v.37c-.24.4-.63.7-1.09.82-.46.19-.94.32-1.43.38-.58-.06-1.1.37-1.16.95,0,0,0,.02,0,.03-.1.63-.31.72-1,.66-.17-.01-.33-.04-.49-.07-1.3-.29-2.67-.03-3.76.74-.22.16-.46.3-.7.44-1.76,1.16-4.03,1.24-5.86.2-.54-.29-1.06-.62-1.59-.94-.44-.26-.93-.42-1.43-.48-.81-.05-1.63,0-2.43.14-.41.04-.82-.07-.84-.46-.06-.94-.69-1.18-1.56-1.26-.41-.06-.81-.17-1.18-.34-.42-.12-.78-.41-1-.79"/>
  </g>
</svg>