<?xml version="1.0" encoding="UTF-8"?>
<svg id="Camada_2" data-name="Camada 2" xmlns="http://www.w3.org/2000/svg" viewBox="0 0 21.83 23.37">
  <defs>
    <style>
      .cls-1 {
        fill: #646464;
        stroke-width: 0px;
      }
    </style>
  </defs>
  <g id="Camada_1-2" data-name="Camada 1">
    <path id="Caminho_7" data-name="Caminho 7" class="cls-1" d="M21.82,9.45c-.21.02-.42.03-.63.03-2.24.03-4.36-1.02-5.7-2.82v9.61c0,3.92-3.47,7.1-7.75,7.1S0,20.19,0,16.27s3.47-7.1,7.75-7.1c.16,0,.32.01.48.02v3.5c-.16-.02-.32-.04-.48-.04-2.09-.09-3.86,1.53-3.95,3.62.1,2.09,1.86,3.71,3.95,3.62,2.18,0,4.12-1.58,4.12-3.58l.04-16.32h3.65c.48,3.12,3.11,5.46,6.27,5.57v3.89"/>
  </g>
</svg>