<?xml version="1.0" encoding="UTF-8"?>
<svg id="Camada_2" data-name="Camada 2" xmlns="http://www.w3.org/2000/svg" viewBox="0 0 23.72 17.89">
  <defs>
    <style>
      .cls-1 {
        fill: #646464;
        stroke-width: 0px;
      }
    </style>
  </defs>
  <g id="Camada_1-2" data-name="Camada 1">
    <path id="Caminho_11" data-name="Caminho 11" class="cls-1" d="M23.62,2.14c-.77.3-1.58.51-2.4.63.39-.06.95-.7,1.18-.96.35-.39.62-.84.8-1.33.02-.04.04-.09,0-.11-.04-.02-.09-.01-.13,0-.91.44-1.86.78-2.85,1-.07.02-.14,0-.19-.05-.08-.08-.16-.16-.25-.23-.42-.33-.88-.59-1.38-.78-.68-.25-1.4-.35-2.12-.31-.7.04-1.38.22-2,.52-.61.29-1.16.7-1.62,1.21-.45.51-.78,1.12-.97,1.77-.15.61-.17,1.25-.05,1.87.02.1,0,.12-.1.1C7.64,4.96,4.41,3.67,1.78.93c-.11-.12-.17-.12-.27.01-1.04,1.76-.69,4.01.85,5.36.19.17.39.33.6.49-.65-.04-1.29-.21-1.88-.49-.11-.07-.17-.03-.18.09,0,.17,0,.34.03.51.28,1.7,1.47,3.1,3.09,3.66.2.08.41.14.63.18-.61.11-1.23.13-1.85.05-.14-.02-.19.04-.14.16.71,1.59,2.17,2.71,3.89,2.98.18.03.35.03.53.06-.01.02-.02.02-.03.03-.44.61-1.95,1.06-2.65,1.29-1.3.42-2.67.58-4.03.47-.22-.03-.26-.03-.32,0s0,.08.06.13c.28.17.56.31.84.46.86.42,1.77.75,2.7.99,4.84,1.22,10.3.32,13.93-2.99,2.85-2.59,3.85-6.18,3.85-9.77,0-.14.18-.22.29-.29.72-.51,1.36-1.11,1.9-1.81.08-.1.13-.22.13-.35v-.02c0-.06,0-.04-.1,0"/>
  </g>
</svg>